<svg xmlns="http://www.w3.org/2000/svg" xmlns:xlink="http://www.w3.org/1999/xlink" width="1000" zoomAndPan="magnify" viewBox="0 0 750 374.999991" height="500" preserveAspectRatio="xMidYMid meet" version="1.0"><defs><g/><clipPath id="f548d772e6"><path d="M 108.328125 93 L 266.578125 93 L 266.578125 250.996094 L 108.328125 250.996094 Z M 108.328125 93 " clip-rule="nonzero"/></clipPath><clipPath id="92b2c820bd"><path d="M 369.316406 37.5 L 380.632812 37.5 L 380.632812 335.359375 L 369.316406 335.359375 Z M 369.316406 37.5 " clip-rule="nonzero"/></clipPath><clipPath id="b0f1e25343"><path d="M 441.980469 78.167969 L 481.75 78.167969 L 481.75 274.761719 L 441.980469 274.761719 Z M 441.980469 78.167969 " clip-rule="nonzero"/></clipPath></defs><rect x="-75" width="900" fill="#ffffff" y="-37.499999" height="449.999989" fill-opacity="1"/><rect x="-75" width="900" fill="#000000" y="-37.499999" height="449.999989" fill-opacity="1"/><path stroke-linecap="butt" transform="matrix(0.75, 0, 0, 0.75, 39.295773, 43.699459)" fill="none" stroke-linejoin="miter" d="M 33.001471 -0.000319974 L 33.001471 258.280947 C 33.001471 309.197617 74.272307 350.468453 125.183769 350.468453 L 217.371275 350.468453 " stroke="#ffffff" stroke-width="66" stroke-opacity="1" stroke-miterlimit="4"/><path stroke-linecap="butt" transform="matrix(0.75, 0, 0, 0.75, 158.263095, 43.699459)" fill="none" stroke-linejoin="miter" d="M 203.586719 -0.000319974 L 203.586719 248.671571 C 203.586719 304.895533 158.0138 350.468453 101.795046 350.468453 L -0.00183554 350.468453 " stroke="#ffffff" stroke-width="66" stroke-opacity="1" stroke-miterlimit="4"/><g clip-path="url(#f548d772e6)"><path fill="#ffffff" d="M 212.601562 93.273438 C 217.027344 94.6875 221.292969 96.460938 225.359375 98.5625 C 226.894531 99.359375 227.683594 101.019531 227.335938 102.710938 C 225.710938 110.625 227.960938 119.179688 234.097656 125.316406 C 240.238281 131.453125 248.792969 133.707031 256.703125 132.078125 C 258.398438 131.730469 260.054688 132.519531 260.847656 134.054688 C 262.957031 138.125 264.730469 142.386719 266.144531 146.8125 C 266.671875 148.460938 266.058594 150.191406 264.609375 151.144531 C 257.859375 155.585938 253.40625 163.234375 253.40625 171.914062 C 253.40625 180.601562 257.859375 188.246094 264.609375 192.6875 C 266.058594 193.636719 266.671875 195.371094 266.144531 197.023438 C 264.730469 201.449219 262.957031 205.714844 260.847656 209.78125 C 260.054688 211.316406 258.398438 212.105469 256.707031 211.757812 C 248.792969 210.128906 240.238281 212.378906 234.097656 218.519531 C 227.960938 224.660156 225.710938 233.214844 227.335938 241.125 C 227.6875 242.820312 226.894531 244.476562 225.359375 245.273438 C 221.292969 247.375 217.027344 249.148438 212.601562 250.5625 C 210.953125 251.089844 209.222656 250.476562 208.265625 249.03125 C 203.824219 242.28125 196.183594 237.824219 187.496094 237.824219 C 178.8125 237.824219 171.167969 242.28125 166.726562 249.03125 C 165.777344 250.476562 164.042969 251.089844 162.394531 250.5625 C 157.96875 249.148438 153.703125 247.375 149.636719 245.273438 C 148.101562 244.476562 147.308594 242.820312 147.660156 241.125 C 149.289062 233.214844 147.035156 224.660156 140.898438 218.519531 C 134.753906 212.378906 126.203125 210.128906 118.292969 211.757812 C 116.597656 212.105469 114.941406 211.316406 114.144531 209.78125 C 112.039062 205.710938 110.261719 201.445312 108.851562 197.019531 C 108.328125 195.371094 108.9375 193.636719 110.382812 192.6875 C 117.140625 188.246094 121.59375 180.601562 121.59375 171.914062 C 121.59375 163.234375 117.140625 155.585938 110.382812 151.144531 C 108.9375 150.195312 108.328125 148.460938 108.851562 146.8125 C 110.261719 142.386719 112.039062 138.121094 114.144531 134.054688 C 114.941406 132.519531 116.597656 131.730469 118.292969 132.078125 C 126.203125 133.707031 134.757812 131.453125 140.898438 125.316406 C 147.035156 119.179688 149.289062 110.625 147.660156 102.710938 C 147.308594 101.019531 148.101562 99.359375 149.636719 98.5625 C 153.703125 96.460938 157.96875 94.6875 162.394531 93.273438 C 164.042969 92.746094 165.777344 93.359375 166.726562 94.808594 C 171.167969 101.554688 178.8125 106.015625 187.496094 106.015625 C 196.183594 106.015625 203.824219 101.554688 208.265625 94.808594 C 209.222656 93.359375 210.953125 92.746094 212.601562 93.273438 Z M 201.035156 140.953125 C 207.5 145.308594 211.75 152.695312 211.75 161.070312 C 211.75 170.488281 206.378906 178.652344 198.539062 182.667969 C 197.695312 183.097656 197.199219 183.910156 197.199219 184.859375 L 197.199219 212.378906 C 194.085938 213.121094 190.839844 213.515625 187.496094 213.515625 C 184.15625 213.515625 180.910156 213.125 177.796875 212.378906 L 177.796875 184.859375 C 177.796875 183.910156 177.300781 183.101562 176.457031 182.667969 C 168.613281 178.652344 163.246094 170.488281 163.246094 161.070312 C 163.246094 152.691406 167.496094 145.308594 173.957031 140.953125 C 174.734375 140.429688 175.664062 140.378906 176.492188 140.820312 C 177.316406 141.257812 177.796875 142.058594 177.796875 142.992188 L 177.796875 164.152344 C 177.796875 165.507812 178.90625 166.613281 180.257812 166.613281 L 194.734375 166.613281 C 196.09375 166.613281 197.199219 165.507812 197.199219 164.152344 L 197.199219 142.996094 C 197.199219 142.058594 197.679688 141.257812 198.503906 140.820312 C 199.328125 140.382812 200.261719 140.433594 201.035156 140.953125 Z M 187.496094 124.59375 C 213.636719 124.59375 234.820312 145.78125 234.820312 171.917969 C 234.820312 198.054688 213.636719 219.242188 187.496094 219.242188 C 161.363281 219.242188 140.171875 198.054688 140.171875 171.917969 C 140.171875 145.78125 161.363281 124.59375 187.496094 124.59375 Z M 187.496094 124.59375 " fill-opacity="1" fill-rule="evenodd"/></g><g clip-path="url(#92b2c820bd)"><path fill="#ffffff" d="M 369.316406 37.5 L 380.632812 37.5 L 380.632812 335.355469 L 369.316406 335.355469 Z M 369.316406 37.5 " fill-opacity="1" fill-rule="nonzero"/></g><g clip-path="url(#b0f1e25343)"><path fill="#ffffff" d="M 441.980469 78.167969 L 481.75 78.167969 L 481.75 274.703125 L 441.980469 274.703125 Z M 441.980469 78.167969 " fill-opacity="1" fill-rule="nonzero"/></g><g fill="#ffffff" fill-opacity="1"><g transform="translate(492.075643, 279.452935)"><g><path d="M 96.234375 -196.5 C 128.128906 -196.5 152.476562 -188.253906 169.28125 -171.765625 C 186.082031 -155.285156 194.484375 -130.78125 194.484375 -98.25 C 194.484375 -65.8125 186.082031 -41.328125 169.28125 -24.796875 C 152.476562 -8.265625 128.128906 0 96.234375 0 L 25.53125 0 L 25.53125 -196.5 Z M 93.953125 -32.65625 C 114.203125 -32.65625 129.34375 -37.828125 139.375 -48.171875 C 149.414062 -58.523438 154.4375 -75.21875 154.4375 -98.25 C 154.4375 -121.28125 149.414062 -137.96875 139.375 -148.3125 C 129.34375 -158.664062 114.203125 -163.84375 93.953125 -163.84375 L 64.375 -163.84375 L 64.375 -32.65625 Z M 93.953125 -32.65625 "/></g></g></g></svg>