<svg xmlns="http://www.w3.org/2000/svg" xmlns:xlink="http://www.w3.org/1999/xlink" width="1000" zoomAndPan="magnify" viewBox="0 0 750 374.999991" height="500" preserveAspectRatio="xMidYMid meet" version="1.0"><defs><g/><clipPath id="4bcc39f31d"><path d="M 108.328125 93 L 266.578125 93 L 266.578125 250.996094 L 108.328125 250.996094 Z M 108.328125 93 " clip-rule="nonzero"/></clipPath><clipPath id="60e33b734f"><path d="M 369.316406 37.5 L 380.632812 37.5 L 380.632812 335.359375 L 369.316406 335.359375 Z M 369.316406 37.5 " clip-rule="nonzero"/></clipPath><clipPath id="e82a5fc4f6"><path d="M 441.980469 78.167969 L 481.75 78.167969 L 481.75 274.761719 L 441.980469 274.761719 Z M 441.980469 78.167969 " clip-rule="nonzero"/></clipPath></defs><rect x="-75" width="900" fill="#ffffff" y="-37.499999" height="449.999989" fill-opacity="1"/><rect x="-75" width="900" fill="#ffffff" y="-37.499999" height="449.999989" fill-opacity="1"/><path stroke-linecap="butt" transform="matrix(0.75, 0, 0, 0.75, 39.295773, 43.699459)" fill="none" stroke-linejoin="miter" d="M 33.001471 -0.000319974 L 33.001471 258.280947 C 33.001471 309.197617 74.272307 350.468453 125.183769 350.468453 L 217.371275 350.468453 " stroke="#000000" stroke-width="66" stroke-opacity="1" stroke-miterlimit="4"/><path stroke-linecap="butt" transform="matrix(0.75, 0, 0, 0.75, 158.263095, 43.699459)" fill="none" stroke-linejoin="miter" d="M 203.586719 -0.000319974 L 203.586719 248.671571 C 203.586719 304.895533 158.0138 350.468453 101.795046 350.468453 L -0.00183554 350.468453 " stroke="#000000" stroke-width="66" stroke-opacity="1" stroke-miterlimit="4"/><g clip-path="url(#4bcc39f31d)"><path fill="#000000" d="M 212.542969 93.273438 C 216.964844 94.683594 221.226562 96.460938 225.289062 98.5625 C 226.824219 99.355469 227.613281 101.011719 227.265625 102.703125 C 225.640625 110.613281 227.890625 119.164062 234.023438 125.296875 C 240.160156 131.433594 248.710938 133.683594 256.613281 132.054688 C 258.308594 131.707031 259.964844 132.496094 260.757812 134.03125 C 262.863281 138.097656 264.636719 142.355469 266.050781 146.78125 C 266.578125 148.425781 265.964844 150.160156 264.519531 151.109375 C 257.769531 155.550781 253.320312 163.191406 253.320312 171.867188 C 253.320312 180.550781 257.769531 188.191406 264.519531 192.625 C 265.964844 193.578125 266.578125 195.308594 266.050781 196.960938 C 264.636719 201.382812 262.863281 205.644531 260.757812 209.710938 C 259.964844 211.246094 258.308594 212.035156 256.617188 211.6875 C 248.710938 210.058594 240.160156 212.308594 234.023438 218.445312 C 227.890625 224.582031 225.640625 233.128906 227.265625 241.039062 C 227.617188 242.734375 226.824219 244.386719 225.289062 245.183594 C 221.226562 247.285156 216.964844 249.058594 212.542969 250.46875 C 210.890625 250.996094 209.160156 250.382812 208.207031 248.9375 C 203.769531 242.191406 196.132812 237.738281 187.449219 237.738281 C 178.773438 237.738281 171.132812 242.191406 166.691406 248.9375 C 165.742188 250.382812 164.007812 250.996094 162.363281 250.46875 C 157.941406 249.058594 153.675781 247.28125 149.613281 245.183594 C 148.078125 244.386719 147.285156 242.734375 147.636719 241.039062 C 149.265625 233.128906 147.011719 224.582031 140.878906 218.445312 C 134.738281 212.308594 126.191406 210.058594 118.285156 211.6875 C 116.59375 212.035156 114.9375 211.246094 114.140625 209.710938 C 112.039062 205.644531 110.261719 201.382812 108.851562 196.957031 C 108.328125 195.308594 108.9375 193.578125 110.382812 192.625 C 117.132812 188.1875 121.585938 180.550781 121.585938 171.867188 C 121.585938 163.191406 117.132812 155.550781 110.382812 151.109375 C 108.9375 150.160156 108.328125 148.425781 108.851562 146.78125 C 110.261719 142.355469 112.039062 138.09375 114.140625 134.03125 C 114.9375 132.496094 116.59375 131.707031 118.285156 132.054688 C 126.191406 133.683594 134.742188 131.433594 140.878906 125.296875 C 147.011719 119.164062 149.265625 110.613281 147.636719 102.707031 C 147.285156 101.011719 148.078125 99.355469 149.613281 98.5625 C 153.675781 96.460938 157.941406 94.683594 162.363281 93.273438 C 164.007812 92.746094 165.742188 93.359375 166.691406 94.804688 C 171.132812 101.550781 178.773438 106.007812 187.449219 106.007812 C 196.132812 106.007812 203.769531 101.550781 208.207031 94.804688 C 209.160156 93.359375 210.890625 92.746094 212.542969 93.273438 Z M 200.980469 140.925781 C 207.441406 145.277344 211.6875 152.660156 211.6875 161.03125 C 211.6875 170.441406 206.324219 178.601562 198.484375 182.613281 C 197.640625 183.042969 197.144531 183.855469 197.144531 184.804688 L 197.144531 212.308594 C 194.035156 213.050781 190.789062 213.445312 187.449219 213.445312 C 184.113281 213.445312 180.867188 213.050781 177.757812 212.308594 L 177.757812 184.804688 C 177.757812 183.855469 177.261719 183.046875 176.417969 182.613281 C 168.578125 178.601562 163.214844 170.445312 163.214844 161.03125 C 163.214844 152.65625 167.460938 145.277344 173.917969 140.921875 C 174.695312 140.402344 175.625 140.351562 176.449219 140.792969 C 177.273438 141.230469 177.757812 142.03125 177.757812 142.964844 L 177.757812 164.109375 C 177.757812 165.464844 178.863281 166.570312 180.21875 166.570312 L 194.683594 166.570312 C 196.039062 166.570312 197.144531 165.464844 197.144531 164.109375 L 197.144531 142.964844 C 197.144531 142.03125 197.625 141.230469 198.449219 140.792969 C 199.277344 140.355469 200.210938 140.402344 200.980469 140.925781 Z M 187.449219 124.574219 C 213.574219 124.574219 234.746094 145.75 234.746094 171.871094 C 234.746094 197.992188 213.574219 219.167969 187.449219 219.167969 C 161.332031 219.167969 140.152344 197.992188 140.152344 171.871094 C 140.152344 145.75 161.332031 124.574219 187.449219 124.574219 Z M 187.449219 124.574219 " fill-opacity="1" fill-rule="evenodd"/></g><g clip-path="url(#60e33b734f)"><path fill="#000000" d="M 369.316406 37.5 L 380.632812 37.5 L 380.632812 335.355469 L 369.316406 335.355469 Z M 369.316406 37.5 " fill-opacity="1" fill-rule="nonzero"/></g><g clip-path="url(#e82a5fc4f6)"><path fill="#000000" d="M 441.980469 78.167969 L 481.75 78.167969 L 481.75 274.703125 L 441.980469 274.703125 Z M 441.980469 78.167969 " fill-opacity="1" fill-rule="nonzero"/></g><g fill="#000000" fill-opacity="1"><g transform="translate(492.07395, 275.144925)"><g><path d="M 96.234375 -196.484375 C 128.128906 -196.484375 152.472656 -188.238281 169.265625 -171.75 C 186.066406 -155.269531 194.46875 -130.769531 194.46875 -98.25 C 194.46875 -65.8125 186.066406 -41.328125 169.265625 -24.796875 C 152.472656 -8.265625 128.128906 0 96.234375 0 L 25.53125 0 L 25.53125 -196.484375 Z M 93.9375 -32.65625 C 114.1875 -32.65625 129.328125 -37.828125 139.359375 -48.171875 C 149.398438 -58.523438 154.421875 -75.21875 154.421875 -98.25 C 154.421875 -121.269531 149.398438 -137.953125 139.359375 -148.296875 C 129.328125 -158.648438 114.1875 -163.828125 93.9375 -163.828125 L 64.375 -163.828125 L 64.375 -32.65625 Z M 93.9375 -32.65625 "/></g></g></g></svg>