<svg xmlns="http://www.w3.org/2000/svg" xmlns:xlink="http://www.w3.org/1999/xlink" width="500" zoomAndPan="magnify" viewBox="0 0 375 374.999991" height="500" preserveAspectRatio="xMidYMid meet" version="1.0"><defs><clipPath id="938bded97e"><path d="M 136.214844 123 L 242.828125 123 L 242.828125 229.546875 L 136.214844 229.546875 Z M 136.214844 123 " clip-rule="nonzero"/></clipPath></defs><path stroke-linecap="butt" transform="matrix(0.701408, 0, 0, 0.701408, 89.999999, 89.999994)" fill="none" stroke-linejoin="miter" d="M 23.501822 0.0000084259 L 23.501822 185.43605 C 23.501822 221.986392 53.129708 251.619847 89.68562 251.619847 L 155.869417 251.619847 " stroke="#ffffff" stroke-width="47" stroke-opacity="1" stroke-miterlimit="4"/><path stroke-linecap="butt" transform="matrix(0.701408, 0, 0, 0.701408, 169.744213, 89.999994)" fill="none" stroke-linejoin="miter" d="M 146.165066 0.0000084259 L 146.165066 178.535871 C 146.165066 197.922088 138.468499 216.506347 124.762816 230.212029 C 111.057134 243.917711 92.467306 251.619847 73.081089 251.619847 L 0.00268203 251.619847 " stroke="#ffffff" stroke-width="47" stroke-opacity="1" stroke-miterlimit="4"/><g clip-path="url(#938bded97e)"><path fill="#ffffff" d="M 206.230469 123.285156 C 209.203125 124.234375 212.066406 125.425781 214.796875 126.839844 C 215.824219 127.371094 216.355469 128.484375 216.125 129.621094 C 215.03125 134.933594 216.542969 140.679688 220.664062 144.800781 C 224.785156 148.921875 230.53125 150.4375 235.839844 149.339844 C 236.980469 149.109375 238.09375 149.636719 238.625 150.667969 C 240.039062 153.398438 241.230469 156.261719 242.179688 159.234375 C 242.535156 160.339844 242.121094 161.503906 241.152344 162.144531 C 236.617188 165.125 233.625 170.261719 233.625 176.089844 C 233.625 181.921875 236.617188 187.054688 241.152344 190.035156 C 242.121094 190.671875 242.535156 191.839844 242.179688 192.945312 C 241.230469 195.917969 240.039062 198.78125 238.625 201.511719 C 238.09375 202.542969 236.980469 203.074219 235.84375 202.839844 C 230.53125 201.746094 224.785156 203.257812 220.664062 207.382812 C 216.542969 211.503906 215.03125 217.246094 216.125 222.558594 C 216.359375 223.699219 215.824219 224.808594 214.796875 225.34375 C 212.0625 226.757812 209.203125 227.949219 206.230469 228.894531 C 205.121094 229.25 203.960938 228.835938 203.320312 227.867188 C 200.335938 223.335938 195.207031 220.34375 189.375 220.34375 C 183.542969 220.34375 178.410156 223.335938 175.425781 227.867188 C 174.789062 228.835938 173.625 229.25 172.519531 228.894531 C 169.546875 227.949219 166.683594 226.753906 163.953125 225.34375 C 162.921875 224.808594 162.390625 223.699219 162.625 222.558594 C 163.71875 217.246094 162.207031 211.503906 158.085938 207.382812 C 153.960938 203.257812 148.21875 201.746094 142.90625 202.839844 C 141.769531 203.074219 140.65625 202.542969 140.121094 201.511719 C 138.707031 198.78125 137.515625 195.917969 136.566406 192.945312 C 136.214844 191.839844 136.625 190.671875 137.597656 190.035156 C 142.132812 187.054688 145.121094 181.921875 145.121094 176.089844 C 145.121094 170.261719 142.132812 165.125 137.597656 162.144531 C 136.625 161.503906 136.214844 160.339844 136.566406 159.234375 C 137.515625 156.261719 138.707031 153.398438 140.121094 150.667969 C 140.65625 149.636719 141.769531 149.109375 142.90625 149.339844 C 148.21875 150.4375 153.960938 148.921875 158.085938 144.800781 C 162.207031 140.679688 163.71875 134.933594 162.625 129.625 C 162.390625 128.484375 162.921875 127.371094 163.953125 126.839844 C 166.683594 125.425781 169.546875 124.234375 172.519531 123.285156 C 173.625 122.933594 174.789062 123.34375 175.425781 124.316406 C 178.410156 128.847656 183.542969 131.84375 189.375 131.84375 C 195.207031 131.84375 200.335938 128.847656 203.320312 124.316406 C 203.960938 123.34375 205.121094 122.933594 206.230469 123.285156 Z M 198.464844 155.300781 C 202.804688 158.226562 205.65625 163.183594 205.65625 168.808594 C 205.65625 175.128906 202.050781 180.613281 196.785156 183.308594 C 196.21875 183.597656 195.886719 184.144531 195.886719 184.78125 L 195.886719 203.257812 C 193.796875 203.757812 191.617188 204.023438 189.375 204.023438 C 187.128906 204.023438 184.949219 203.757812 182.859375 203.257812 L 182.859375 184.78125 C 182.859375 184.144531 182.527344 183.597656 181.960938 183.308594 C 176.695312 180.613281 173.089844 175.132812 173.089844 168.808594 C 173.089844 163.183594 175.945312 158.222656 180.28125 155.300781 C 180.804688 154.949219 181.429688 154.914062 181.984375 155.210938 C 182.535156 155.503906 182.859375 156.042969 182.859375 156.671875 L 182.859375 170.875 C 182.859375 171.789062 183.605469 172.53125 184.511719 172.53125 L 194.234375 172.53125 C 195.144531 172.53125 195.886719 171.789062 195.886719 170.875 L 195.886719 156.671875 C 195.886719 156.042969 196.210938 155.503906 196.765625 155.210938 C 197.316406 154.917969 197.945312 154.949219 198.464844 155.300781 Z M 189.375 144.316406 C 206.921875 144.316406 221.148438 158.542969 221.148438 176.089844 C 221.148438 193.640625 206.921875 207.867188 189.375 207.867188 C 171.824219 207.867188 157.597656 193.640625 157.597656 176.089844 C 157.597656 158.542969 171.824219 144.316406 189.375 144.316406 Z M 189.375 144.316406 " fill-opacity="1" fill-rule="evenodd"/></g></svg>