<svg xmlns="http://www.w3.org/2000/svg" xmlns:xlink="http://www.w3.org/1999/xlink" width="500" zoomAndPan="magnify" viewBox="0 0 375 374.999991" height="500" preserveAspectRatio="xMidYMid meet" version="1.0"><defs><clipPath id="ca964a83c3"><path d="M 117.101562 103.378906 L 258 103.378906 L 258 244.378906 L 117.101562 244.378906 Z M 117.101562 103.378906 " clip-rule="nonzero"/></clipPath></defs><path stroke-linecap="butt" transform="matrix(0.75, 0, 0, 0.75, 55.98111, 59.768449)" fill="none" stroke-linejoin="miter" d="M 28.999147 0.00144317 L 28.999147 229.6525 C 28.999147 251.392085 37.634565 272.235836 53.009566 287.610837 C 68.379358 302.98063 89.228318 311.616047 110.967903 311.616047 L 192.93145 311.616047 " stroke="#000000" stroke-width="58" stroke-opacity="1" stroke-miterlimit="4"/><path stroke-linecap="butt" transform="matrix(0.75, 0, 0, 0.75, 161.504101, 59.768449)" fill="none" stroke-linejoin="miter" d="M 181.020585 0.00144317 L 181.020585 221.105624 C 181.020585 271.095211 140.494541 311.616047 90.510163 311.616047 L -0.000259793 311.616047 " stroke="#000000" stroke-width="58" stroke-opacity="1" stroke-miterlimit="4"/><g clip-path="url(#ca964a83c3)"><path fill="#000000" d="M 209.957031 103.847656 C 213.898438 105.105469 217.699219 106.6875 221.316406 108.558594 C 222.683594 109.265625 223.386719 110.742188 223.078125 112.25 C 221.628906 119.296875 223.632812 126.914062 229.097656 132.382812 C 234.566406 137.847656 242.183594 139.855469 249.226562 138.402344 C 250.738281 138.09375 252.214844 138.796875 252.917969 140.160156 C 254.796875 143.785156 256.375 147.582031 257.632812 151.523438 C 258.101562 152.988281 257.558594 154.53125 256.269531 155.382812 C 250.257812 159.335938 246.289062 166.144531 246.289062 173.875 C 246.289062 181.609375 250.257812 188.417969 256.269531 192.371094 C 257.558594 193.21875 258.101562 194.761719 257.632812 196.230469 C 256.375 200.175781 254.796875 203.972656 252.917969 207.59375 C 252.214844 208.960938 250.738281 209.664062 249.230469 209.351562 C 242.183594 207.902344 234.566406 209.90625 229.097656 215.375 C 223.632812 220.84375 221.628906 228.460938 223.078125 235.507812 C 223.390625 237.015625 222.683594 238.488281 221.316406 239.199219 C 217.695312 241.070312 213.898438 242.652344 209.957031 243.90625 C 208.488281 244.378906 206.945312 243.832031 206.097656 242.542969 C 202.140625 236.53125 195.335938 232.5625 187.601562 232.5625 C 179.871094 232.5625 173.0625 236.53125 169.105469 242.542969 C 168.261719 243.832031 166.714844 244.378906 165.25 243.90625 C 161.308594 242.652344 157.507812 241.070312 153.890625 239.199219 C 152.519531 238.488281 151.816406 237.015625 152.128906 235.507812 C 153.582031 228.460938 151.574219 220.84375 146.105469 215.375 C 140.636719 209.90625 133.019531 207.902344 125.976562 209.351562 C 124.46875 209.664062 122.992188 208.960938 122.285156 207.59375 C 120.410156 203.96875 118.828125 200.171875 117.570312 196.230469 C 117.101562 194.761719 117.648438 193.21875 118.933594 192.371094 C 124.949219 188.417969 128.917969 181.609375 128.917969 173.875 C 128.917969 166.144531 124.949219 159.335938 118.933594 155.382812 C 117.648438 154.535156 117.101562 152.988281 117.570312 151.523438 C 118.828125 147.582031 120.410156 143.78125 122.285156 140.160156 C 122.992188 138.796875 124.46875 138.09375 125.976562 138.402344 C 133.019531 139.855469 140.640625 137.847656 146.105469 132.382812 C 151.574219 126.914062 153.578125 119.296875 152.128906 112.253906 C 151.816406 110.742188 152.519531 109.265625 153.890625 108.558594 C 157.507812 106.6875 161.308594 105.105469 165.25 103.847656 C 166.714844 103.378906 168.261719 103.925781 169.105469 105.214844 C 173.0625 111.222656 179.871094 115.195312 187.601562 115.195312 C 195.335938 115.195312 202.140625 111.222656 206.097656 105.214844 C 206.945312 103.925781 208.488281 103.378906 209.957031 103.847656 Z M 199.660156 146.304688 C 205.414062 150.183594 209.195312 156.761719 209.195312 164.21875 C 209.195312 172.605469 204.417969 179.875 197.433594 183.449219 C 196.683594 183.832031 196.242188 184.558594 196.242188 185.402344 L 196.242188 209.90625 C 193.46875 210.566406 190.578125 210.921875 187.601562 210.921875 C 184.628906 210.921875 181.738281 210.570312 178.964844 209.90625 L 178.964844 185.402344 C 178.964844 184.558594 178.523438 183.835938 177.773438 183.449219 C 170.789062 179.875 166.007812 172.605469 166.007812 164.21875 C 166.007812 156.757812 169.792969 150.183594 175.546875 146.304688 C 176.238281 145.839844 177.066406 145.792969 177.800781 146.1875 C 178.535156 146.578125 178.964844 147.289062 178.964844 148.121094 L 178.964844 166.960938 C 178.964844 168.171875 179.949219 169.15625 181.15625 169.15625 L 194.046875 169.15625 C 195.257812 169.15625 196.242188 168.171875 196.242188 166.960938 L 196.242188 148.125 C 196.242188 147.289062 196.667969 146.578125 197.402344 146.1875 C 198.136719 145.796875 198.96875 145.839844 199.660156 146.304688 Z M 187.601562 131.738281 C 210.878906 131.738281 229.742188 150.605469 229.742188 173.878906 C 229.742188 197.152344 210.878906 216.019531 187.601562 216.019531 C 164.328125 216.019531 145.460938 197.152344 145.460938 173.878906 C 145.460938 150.605469 164.328125 131.738281 187.601562 131.738281 Z M 187.601562 131.738281 " fill-opacity="1" fill-rule="evenodd"/></g></svg>