<svg xmlns="http://www.w3.org/2000/svg" xmlns:xlink="http://www.w3.org/1999/xlink" width="500" zoomAndPan="magnify" viewBox="0 0 375 74.999997" height="100" preserveAspectRatio="xMidYMid meet" version="1.0"><defs><clipPath id="adf3ec862f"><path d="M 88.421875 33.175781 L 133.679688 33.175781 L 133.679688 41.953125 L 88.421875 41.953125 Z M 88.421875 33.175781 " clip-rule="nonzero"/></clipPath><clipPath id="aa96cf8dd9"><path d="M 196.148438 11.289062 L 205.46875 11.289062 L 205.46875 20.90625 L 196.148438 20.90625 Z M 196.148438 11.289062 " clip-rule="nonzero"/></clipPath><clipPath id="a22c6eb1d7"><path d="M 197.648438 11.289062 L 203.96875 11.289062 C 204.367188 11.289062 204.746094 11.449219 205.027344 11.730469 C 205.3125 12.011719 205.46875 12.390625 205.46875 12.789062 L 205.46875 19.40625 C 205.46875 19.804688 205.3125 20.1875 205.027344 20.46875 C 204.746094 20.75 204.367188 20.90625 203.96875 20.90625 L 197.648438 20.90625 C 197.25 20.90625 196.867188 20.75 196.585938 20.46875 C 196.304688 20.1875 196.148438 19.804688 196.148438 19.40625 L 196.148438 12.789062 C 196.148438 12.390625 196.304688 12.011719 196.585938 11.730469 C 196.867188 11.449219 197.25 11.289062 197.648438 11.289062 Z M 197.648438 11.289062 " clip-rule="nonzero"/></clipPath><clipPath id="0bbc8ad50d"><path d="M 195.9375 25.1875 L 205.257812 25.1875 L 205.257812 63.832031 L 195.9375 63.832031 Z M 195.9375 25.1875 " clip-rule="nonzero"/></clipPath><clipPath id="e383b5303f"><path d="M 197.4375 25.1875 L 203.757812 25.1875 C 204.15625 25.1875 204.539062 25.34375 204.820312 25.625 C 205.101562 25.90625 205.257812 26.289062 205.257812 26.6875 L 205.257812 62.332031 C 205.257812 62.726562 205.101562 63.109375 204.820312 63.390625 C 204.539062 63.671875 204.15625 63.832031 203.757812 63.832031 L 197.4375 63.832031 C 197.039062 63.832031 196.660156 63.671875 196.378906 63.390625 C 196.097656 63.109375 195.9375 62.726562 195.9375 62.332031 L 195.9375 26.6875 C 195.9375 26.289062 196.097656 25.90625 196.378906 25.625 C 196.660156 25.34375 197.039062 25.1875 197.4375 25.1875 Z M 197.4375 25.1875 " clip-rule="nonzero"/></clipPath><clipPath id="d26aded829"><path d="M 212.210938 26.035156 L 242.511719 26.035156 L 242.511719 34.808594 L 212.210938 34.808594 Z M 212.210938 26.035156 " clip-rule="nonzero"/></clipPath><clipPath id="66ea3c4224"><path d="M 242.511719 27.535156 L 242.511719 33.308594 C 242.511719 34.136719 241.839844 34.808594 241.011719 34.808594 L 213.710938 34.808594 C 212.882812 34.808594 212.210938 34.136719 212.210938 33.308594 L 212.210938 27.535156 C 212.210938 26.707031 212.882812 26.035156 213.710938 26.035156 L 241.011719 26.035156 C 241.839844 26.035156 242.511719 26.707031 242.511719 27.535156 Z M 242.511719 27.535156 " clip-rule="nonzero"/></clipPath><clipPath id="5bc96b2208"><path d="M 223.324219 11.167969 L 231.410156 11.167969 L 231.410156 20.789062 L 223.324219 20.789062 Z M 223.324219 11.167969 " clip-rule="nonzero"/></clipPath><clipPath id="a49d2af33f"><path d="M 224.824219 11.167969 L 229.910156 11.167969 C 230.308594 11.167969 230.691406 11.328125 230.972656 11.609375 C 231.253906 11.890625 231.410156 12.273438 231.410156 12.667969 L 231.410156 19.289062 C 231.410156 19.683594 231.253906 20.066406 230.972656 20.347656 C 230.691406 20.628906 230.308594 20.789062 229.910156 20.789062 L 224.824219 20.789062 C 224.429688 20.789062 224.046875 20.628906 223.765625 20.347656 C 223.484375 20.066406 223.324219 19.683594 223.324219 19.289062 L 223.324219 12.667969 C 223.324219 12.273438 223.484375 11.890625 223.765625 11.609375 C 224.046875 11.328125 224.429688 11.167969 224.824219 11.167969 Z M 224.824219 11.167969 " clip-rule="nonzero"/></clipPath><clipPath id="da204763da"><path d="M 237.703125 54.800781 L 247.320312 54.800781 L 247.320312 63.023438 L 237.703125 63.023438 Z M 237.703125 54.800781 " clip-rule="nonzero"/></clipPath><clipPath id="eb94e4c8e1"><path d="M 247.320312 56.300781 L 247.320312 61.523438 C 247.320312 61.921875 247.160156 62.300781 246.878906 62.582031 C 246.597656 62.863281 246.21875 63.023438 245.820312 63.023438 L 239.203125 63.023438 C 238.804688 63.023438 238.421875 62.863281 238.140625 62.582031 C 237.859375 62.300781 237.703125 61.921875 237.703125 61.523438 L 237.703125 56.300781 C 237.703125 55.902344 237.859375 55.519531 238.140625 55.238281 C 238.421875 54.957031 238.804688 54.800781 239.203125 54.800781 L 245.820312 54.800781 C 246.21875 54.800781 246.597656 54.957031 246.878906 55.238281 C 247.160156 55.519531 247.320312 55.902344 247.320312 56.300781 Z M 247.320312 56.300781 " clip-rule="nonzero"/></clipPath><clipPath id="2830e81591"><path d="M 178.183594 11.289062 L 186.136719 11.289062 L 186.136719 20.90625 L 178.183594 20.90625 Z M 178.183594 11.289062 " clip-rule="nonzero"/></clipPath><clipPath id="cb1487d3f8"><path d="M 179.683594 11.289062 L 184.636719 11.289062 C 185.035156 11.289062 185.417969 11.449219 185.699219 11.730469 C 185.980469 12.011719 186.136719 12.390625 186.136719 12.789062 L 186.136719 19.40625 C 186.136719 19.804688 185.980469 20.1875 185.699219 20.46875 C 185.417969 20.75 185.035156 20.90625 184.636719 20.90625 L 179.683594 20.90625 C 179.285156 20.90625 178.902344 20.75 178.621094 20.46875 C 178.339844 20.1875 178.183594 19.804688 178.183594 19.40625 L 178.183594 12.789062 C 178.183594 12.390625 178.339844 12.011719 178.621094 11.730469 C 178.902344 11.449219 179.285156 11.289062 179.683594 11.289062 Z M 179.683594 11.289062 " clip-rule="nonzero"/></clipPath><clipPath id="0ccfd81af0"><path d="M 255.105469 17.605469 L 300.855469 17.605469 L 300.855469 63 L 255.105469 63 Z M 255.105469 17.605469 " clip-rule="nonzero"/></clipPath></defs><rect x="-37.5" width="450" fill="#ffffff" y="-7.5" height="89.999996" fill-opacity="1"/><rect x="-37.5" width="450" fill="#000000" y="-7.5" height="89.999996" fill-opacity="1"/><path stroke-linecap="butt" transform="matrix(0.75, 0, 0, 0.75, 28.716396, 13.103826)" fill="none" stroke-linejoin="miter" d="M 5.497931 0.00218989 L 5.497931 44.007402 C 5.497931 48.174069 7.154181 52.168861 10.102098 55.116778 C 13.044807 58.059486 17.039599 59.715736 21.206266 59.715736 L 36.914601 59.715736 " stroke="#ffffff" stroke-width="11" stroke-opacity="1" stroke-miterlimit="4"/><path stroke-linecap="butt" transform="matrix(0.75, 0, 0, 0.75, 48.89528, 13.103826)" fill="none" stroke-linejoin="miter" d="M 34.691712 0.00218989 L 34.691712 42.371985 C 34.691712 51.950111 26.926087 59.715736 17.342753 59.715736 L -0.000998743 59.715736 " stroke="#ffffff" stroke-width="11" stroke-opacity="1" stroke-miterlimit="4"/><g clip-path="url(#adf3ec862f)"><path fill="#ffffff" d="M 133.679688 33.175781 L 133.679688 41.953125 L 88.421875 41.953125 L 88.421875 33.175781 Z M 133.679688 33.175781 " fill-opacity="1" fill-rule="nonzero"/></g><path stroke-linecap="butt" transform="matrix(0.75, 0, 0, 0.75, 87.062096, 12.940096)" fill="none" stroke-linejoin="miter" d="M 61.479711 5.501747 L 19.500541 5.501747 C 11.766165 5.501747 5.50054 11.767373 5.50054 19.501748 L 5.50054 46.152792 C 5.50054 53.887168 11.766165 60.152793 19.500541 60.152793 L 62.167211 60.152793 " stroke="#ffffff" stroke-width="11" stroke-opacity="1" stroke-miterlimit="4"/><g clip-path="url(#aa96cf8dd9)"><g clip-path="url(#a22c6eb1d7)"><path fill="#ffffff" d="M 196.148438 11.289062 L 205.46875 11.289062 L 205.46875 20.90625 L 196.148438 20.90625 Z M 196.148438 11.289062 " fill-opacity="1" fill-rule="nonzero"/></g></g><g clip-path="url(#0bbc8ad50d)"><g clip-path="url(#e383b5303f)"><path fill="#ffffff" d="M 195.9375 25.1875 L 205.257812 25.1875 L 205.257812 63.832031 L 195.9375 63.832031 Z M 195.9375 25.1875 " fill-opacity="1" fill-rule="nonzero"/></g></g><path stroke-linecap="butt" transform="matrix(0.75, 0, 0, 0.75, 313.10919, 22.941069)" fill="none" stroke-linejoin="miter" d="M 44.234625 5.50045 L 24.500249 5.50045 C 14.005456 5.50045 5.500247 14.005659 5.500247 24.500452 L 5.500247 54.521288 " stroke="#ffffff" stroke-width="11" stroke-opacity="1" stroke-miterlimit="4"/><path stroke-linecap="butt" transform="matrix(0.75, 0, 0, 0.75, 223.243525, 12.07471)" fill="none" stroke-linejoin="miter" d="M 5.498217 -0.000655659 L 5.498217 52.33789 C 5.498217 55.014974 6.565925 57.587891 8.45655 59.478516 C 10.352384 61.374349 12.920092 62.436849 15.602384 62.436849 L 25.701343 62.436849 " stroke="#ffffff" stroke-width="11" stroke-opacity="1" stroke-miterlimit="4"/><g clip-path="url(#d26aded829)"><g clip-path="url(#66ea3c4224)"><path fill="#ffffff" d="M 242.511719 26.035156 L 242.511719 34.808594 L 212.210938 34.808594 L 212.210938 26.035156 Z M 242.511719 26.035156 " fill-opacity="1" fill-rule="nonzero"/></g></g><g clip-path="url(#5bc96b2208)"><g clip-path="url(#a49d2af33f)"><path fill="#ffffff" d="M 223.324219 11.167969 L 231.410156 11.167969 L 231.410156 20.789062 L 223.324219 20.789062 Z M 223.324219 11.167969 " fill-opacity="1" fill-rule="nonzero"/></g></g><g clip-path="url(#da204763da)"><g clip-path="url(#eb94e4c8e1)"><path fill="#ffffff" d="M 247.320312 54.800781 L 247.320312 63.023438 L 237.703125 63.023438 L 237.703125 54.800781 Z M 247.320312 54.800781 " fill-opacity="1" fill-rule="nonzero"/></g></g><path stroke-linecap="butt" transform="matrix(0.75, 0, 0, 0.75, 140.766646, 12.195107)" fill="none" stroke-linejoin="miter" d="M 55.191351 0.000274048 L 55.191351 52.27632 C 55.191351 57.802362 50.712184 62.276321 45.19135 62.276321 L 15.498639 62.276321 C 9.977806 62.276321 5.498639 57.802362 5.498639 52.27632 L 5.498639 39.932569 C 5.498639 34.411735 9.977806 29.932568 15.498639 29.932568 L 55.191351 29.932568 " stroke="#ffffff" stroke-width="11" stroke-opacity="1" stroke-miterlimit="4"/><g clip-path="url(#2830e81591)"><g clip-path="url(#cb1487d3f8)"><path fill="#ffffff" d="M 178.183594 11.289062 L 186.136719 11.289062 L 186.136719 20.90625 L 178.183594 20.90625 Z M 178.183594 11.289062 " fill-opacity="1" fill-rule="nonzero"/></g></g><g clip-path="url(#0ccfd81af0)"><path fill="#ffffff" d="M 285.007812 17.753906 C 286.277344 18.160156 287.5 18.667969 288.667969 19.273438 C 289.105469 19.5 289.332031 19.976562 289.234375 20.460938 C 288.765625 22.730469 289.414062 25.183594 291.171875 26.945312 C 292.933594 28.703125 295.386719 29.351562 297.65625 28.882812 C 298.140625 28.785156 298.617188 29.011719 298.84375 29.449219 C 299.449219 30.617188 299.957031 31.839844 300.363281 33.109375 C 300.515625 33.582031 300.339844 34.078125 299.921875 34.351562 C 297.988281 35.625 296.710938 37.816406 296.710938 40.308594 C 296.710938 42.800781 297.988281 44.992188 299.921875 46.265625 C 300.339844 46.539062 300.515625 47.035156 300.363281 47.507812 C 299.957031 48.777344 299.449219 50 298.84375 51.167969 C 298.617188 51.605469 298.140625 51.832031 297.65625 51.734375 C 295.386719 51.265625 292.933594 51.914062 291.171875 53.671875 C 289.414062 55.433594 288.765625 57.886719 289.234375 60.15625 C 289.335938 60.640625 289.105469 61.117188 288.667969 61.34375 C 287.5 61.949219 286.277344 62.457031 285.007812 62.863281 C 284.535156 63.011719 284.039062 62.835938 283.765625 62.421875 C 282.492188 60.488281 280.300781 59.210938 277.808594 59.210938 C 275.316406 59.210938 273.125 60.488281 271.851562 62.421875 C 271.578125 62.835938 271.082031 63.011719 270.609375 62.863281 C 269.339844 62.457031 268.117188 61.949219 266.949219 61.34375 C 266.511719 61.117188 266.285156 60.640625 266.382812 60.15625 C 266.851562 57.886719 266.207031 55.433594 264.445312 53.671875 C 262.683594 51.914062 260.230469 51.265625 257.960938 51.734375 C 257.476562 51.832031 257 51.605469 256.773438 51.167969 C 256.167969 50 255.660156 48.777344 255.253906 47.507812 C 255.105469 47.035156 255.277344 46.539062 255.695312 46.265625 C 257.632812 44.992188 258.910156 42.800781 258.910156 40.308594 C 258.910156 37.816406 257.632812 35.625 255.695312 34.351562 C 255.277344 34.078125 255.105469 33.582031 255.253906 33.109375 C 255.660156 31.839844 256.167969 30.617188 256.773438 29.449219 C 257 29.011719 257.476562 28.785156 257.960938 28.882812 C 260.230469 29.351562 262.683594 28.703125 264.445312 26.945312 C 266.207031 25.183594 266.851562 22.730469 266.382812 20.460938 C 266.285156 19.976562 266.511719 19.5 266.949219 19.273438 C 268.117188 18.667969 269.339844 18.160156 270.609375 17.753906 C 271.082031 17.605469 271.578125 17.78125 271.851562 18.195312 C 273.125 20.128906 275.316406 21.410156 277.808594 21.410156 C 280.300781 21.410156 282.492188 20.128906 283.765625 18.195312 C 284.039062 17.78125 284.535156 17.605469 285.007812 17.753906 Z M 281.691406 31.429688 C 283.542969 32.679688 284.761719 34.796875 284.761719 37.199219 C 284.761719 39.898438 283.222656 42.238281 280.976562 43.390625 C 280.734375 43.515625 280.589844 43.746094 280.589844 44.019531 L 280.589844 51.914062 C 279.699219 52.125 278.765625 52.238281 277.808594 52.238281 C 276.851562 52.238281 275.917969 52.125 275.027344 51.914062 L 275.027344 44.019531 C 275.027344 43.746094 274.882812 43.515625 274.644531 43.390625 C 272.394531 42.238281 270.855469 39.898438 270.855469 37.199219 C 270.855469 34.796875 272.074219 32.675781 273.925781 31.429688 C 274.148438 31.277344 274.414062 31.265625 274.652344 31.390625 C 274.886719 31.515625 275.027344 31.746094 275.027344 32.015625 L 275.027344 38.082031 C 275.027344 38.46875 275.34375 38.789062 275.734375 38.789062 L 279.882812 38.789062 C 280.273438 38.789062 280.589844 38.46875 280.589844 38.082031 L 280.589844 32.015625 C 280.589844 31.746094 280.730469 31.515625 280.964844 31.390625 C 281.203125 31.265625 281.46875 31.277344 281.691406 31.429688 Z M 277.808594 26.738281 C 285.304688 26.738281 291.378906 32.8125 291.378906 40.308594 C 291.378906 47.804688 285.304688 53.878906 277.808594 53.878906 C 270.3125 53.878906 264.238281 47.804688 264.238281 40.308594 C 264.238281 32.8125 270.3125 26.738281 277.808594 26.738281 Z M 277.808594 26.738281 " fill-opacity="1" fill-rule="evenodd"/></g></svg>