<svg version="1.2" xmlns="http://www.w3.org/2000/svg" viewBox="0 0 317 76" width="317" height="76">
	<title>Untitled design-svg</title>
	<defs>
		<clipPath clipPathUnits="userSpaceOnUse" id="cp1">
			<path d="m59.42 34.18h45.26v8.77h-45.26z"/>
		</clipPath>
		<clipPath clipPathUnits="userSpaceOnUse" id="cp2">
			<path d="m167.15 12.29h9.32v9.62h-9.32z"/>
		</clipPath>
		<clipPath clipPathUnits="userSpaceOnUse" id="cp3">
			<path d="m168.65 12.29h6.32c0.4 0 0.78 0.16 1.06 0.44 0.28 0.28 0.44 0.66 0.44 1.06v6.62c0 0.39-0.16 0.78-0.44 1.06-0.28 0.28-0.66 0.44-1.06 0.44h-6.32c-0.4 0-0.78-0.16-1.06-0.44-0.29-0.28-0.44-0.67-0.44-1.06v-6.62c0-0.4 0.15-0.78 0.44-1.06 0.28-0.28 0.66-0.44 1.06-0.44z"/>
		</clipPath>
		<clipPath clipPathUnits="userSpaceOnUse" id="cp4">
			<path d="m166.94 26.19h9.32v38.64h-9.32z"/>
		</clipPath>
		<clipPath clipPathUnits="userSpaceOnUse" id="cp5">
			<path d="m168.44 26.19h6.32c0.4 0 0.78 0.15 1.06 0.43 0.28 0.29 0.44 0.67 0.44 1.07v35.64c0 0.4-0.16 0.78-0.44 1.06-0.28 0.28-0.66 0.44-1.06 0.44h-6.32c-0.4 0-0.78-0.16-1.06-0.44-0.28-0.28-0.44-0.66-0.44-1.06v-35.64c0-0.4 0.16-0.78 0.44-1.07 0.28-0.28 0.66-0.43 1.06-0.43z"/>
		</clipPath>
		<clipPath clipPathUnits="userSpaceOnUse" id="cp6">
			<path d="m183.21 27.04h30.3v8.77h-30.3z"/>
		</clipPath>
		<clipPath clipPathUnits="userSpaceOnUse" id="cp7">
			<path d="m213.51 28.54v5.77c0 0.83-0.67 1.5-1.5 1.5h-27.3c-0.83 0-1.5-0.67-1.5-1.5v-5.77c0-0.83 0.67-1.5 1.5-1.5h27.3c0.83 0 1.5 0.67 1.5 1.5z"/>
		</clipPath>
		<clipPath clipPathUnits="userSpaceOnUse" id="cp8">
			<path d="m194.32 12.17h8.09v9.62h-8.09z"/>
		</clipPath>
		<clipPath clipPathUnits="userSpaceOnUse" id="cp9">
			<path d="m195.82 12.17h5.09c0.4 0 0.78 0.16 1.06 0.44 0.28 0.28 0.44 0.66 0.44 1.06v6.62c0 0.39-0.16 0.78-0.44 1.06-0.28 0.28-0.66 0.44-1.06 0.44h-5.09c-0.39 0-0.77-0.16-1.05-0.44-0.29-0.28-0.45-0.67-0.45-1.06v-6.62c0-0.4 0.16-0.78 0.45-1.06 0.28-0.28 0.66-0.44 1.05-0.44z"/>
		</clipPath>
		<clipPath clipPathUnits="userSpaceOnUse" id="cp10">
			<path d="m208.7 55.8h9.62v8.22h-9.62z"/>
		</clipPath>
		<clipPath clipPathUnits="userSpaceOnUse" id="cp11">
			<path d="m218.32 57.3v5.22c0 0.4-0.16 0.78-0.44 1.06-0.28 0.28-0.66 0.44-1.06 0.44h-6.62c-0.4 0-0.78-0.16-1.06-0.44-0.28-0.28-0.44-0.66-0.44-1.06v-5.22c0-0.4 0.16-0.78 0.44-1.06 0.28-0.28 0.66-0.44 1.06-0.44h6.62c0.4 0 0.78 0.16 1.06 0.44 0.28 0.28 0.44 0.66 0.44 1.06z"/>
		</clipPath>
		<clipPath clipPathUnits="userSpaceOnUse" id="cp12">
			<path d="m149.18 12.29h7.96v9.62h-7.96z"/>
		</clipPath>
		<clipPath clipPathUnits="userSpaceOnUse" id="cp13">
			<path d="m150.68 12.29h4.96c0.4 0 0.78 0.16 1.06 0.44 0.28 0.28 0.44 0.66 0.44 1.06v6.62c0 0.39-0.16 0.78-0.44 1.06-0.28 0.28-0.66 0.44-1.06 0.44h-4.96c-0.39 0-0.78-0.16-1.06-0.44-0.28-0.28-0.44-0.67-0.44-1.06v-6.62c0-0.4 0.16-0.78 0.44-1.06 0.28-0.28 0.67-0.44 1.06-0.44z"/>
		</clipPath>
		<clipPath clipPathUnits="userSpaceOnUse" id="cp14">
			<path d="m226.11 18.61h45.75v45.75h-45.75z"/>
		</clipPath>
	</defs>
	<style>
		.s0 { fill: none;stroke: #000000;stroke-width: 8.3 } 
		.s1 { fill: #000000 } 
	</style>
	<path id="Layer" fill-rule="evenodd" class="s0" d="m3.8 14.1v33c0 3.1 1.3 6.1 3.5 8.3 2.2 2.2 5.2 3.5 8.3 3.5h11.8"/>
	<path id="Layer" fill-rule="evenodd" class="s0" d="m45.9 14.1v31.8c0 7.2-5.8 13-13 13h-13"/>
	<g id="Clip-Path" clip-path="url(#cp1)">
		<g id="Layer">
			<path id="Layer" class="s1" d="m104.7 34.2v8.8h-45.3v-8.8z"/>
		</g>
	</g>
	<path id="Layer" fill-rule="evenodd" class="s0" d="m104.2 18.1h-31.5c-5.8 0-10.5 4.7-10.5 10.5v20c0 5.8 4.7 10.5 10.5 10.5h32"/>
	<g id="Clip-Path" clip-path="url(#cp2)">
		<g id="Layer">
			<g id="Clip-Path" clip-path="url(#cp3)">
				<g id="Layer">
					<path id="Layer" class="s1" d="m167.1 12.3h9.4v9.6h-9.4z"/>
				</g>
			</g>
		</g>
	</g>
	<g id="Clip-Path" clip-path="url(#cp4)">
		<g id="Layer">
			<g id="Clip-Path" clip-path="url(#cp5)">
				<g id="Layer">
					<path id="Layer" class="s1" d="m166.9 26.2h9.4v38.6h-9.4z"/>
				</g>
			</g>
		</g>
	</g>
	<path id="Layer" fill-rule="evenodd" class="s0" d="m317.3 28.1h-14.8c-7.9 0-14.3 6.3-14.3 14.2v22.5"/>
	<path id="Layer" fill-rule="evenodd" class="s0" d="m198.4 13.1v39.2c0 2 0.8 4 2.2 5.4 1.4 1.4 3.3 2.2 5.3 2.2h7.6"/>
	<g id="Clip-Path" clip-path="url(#cp6)">
		<g id="Layer">
			<g id="Clip-Path" clip-path="url(#cp7)">
				<g id="Layer">
					<path id="Layer" class="s1" d="m213.5 27v8.8h-30.3v-8.8z"/>
				</g>
			</g>
		</g>
	</g>
	<g id="Clip-Path" clip-path="url(#cp8)">
		<g id="Layer">
			<g id="Clip-Path" clip-path="url(#cp9)">
				<g id="Layer">
					<path id="Layer" class="s1" d="m194.3 12.2h8.1v9.6h-8.1z"/>
				</g>
			</g>
		</g>
	</g>
	<g id="Clip-Path" clip-path="url(#cp10)">
		<g id="Layer">
			<g id="Clip-Path" clip-path="url(#cp11)">
				<g id="Layer">
					<path id="Layer" class="s1" d="m218.3 55.8v8.2h-9.6v-8.2z"/>
				</g>
			</g>
		</g>
	</g>
	<path id="Layer" fill-rule="evenodd" class="s0" d="m153.2 13.2v39.2c0 4.1-3.4 7.5-7.5 7.5h-22.3c-4.1 0-7.5-3.4-7.5-7.5v-9.3c0-4.1 3.4-7.5 7.5-7.5h29.8"/>
	<g id="Clip-Path" clip-path="url(#cp12)">
		<g id="Layer">
			<g id="Clip-Path" clip-path="url(#cp13)">
				<g id="Layer">
					<path id="Layer" class="s1" d="m149.2 12.3h7.9v9.6h-7.9z"/>
				</g>
			</g>
		</g>
	</g>
	<g id="Clip-Path" clip-path="url(#cp14)">
		<g id="Layer">
			<path id="Layer" fill-rule="evenodd" class="s1" d="m256.2 18.8q2 0.6 3.7 1.5c0.5 0.2 0.7 0.7 0.6 1.2-0.5 2.3 0.2 4.7 1.9 6.5 1.8 1.8 4.3 2.4 6.6 2 0.5-0.1 0.9 0.1 1.2 0.5q0.9 1.8 1.5 3.7c0.2 0.5 0 1-0.4 1.3-2 1.3-3.3 3.5-3.3 6 0 2.5 1.3 4.7 3.3 6 0.4 0.3 0.6 0.8 0.4 1.2q-0.6 2-1.5 3.7c-0.3 0.5-0.7 0.7-1.2 0.6-2.3-0.5-4.8 0.2-6.6 1.9-1.7 1.8-2.4 4.3-1.9 6.6 0.1 0.5-0.1 0.9-0.6 1.2q-1.7 0.9-3.7 1.5c-0.4 0.2-0.9 0-1.2-0.4-1.3-2-3.5-3.3-6-3.3-2.5 0-4.7 1.3-6 3.3-0.3 0.4-0.8 0.6-1.3 0.4q-1.9-0.6-3.7-1.5c-0.4-0.3-0.6-0.7-0.5-1.2 0.4-2.3-0.2-4.8-2-6.6-1.8-1.7-4.2-2.4-6.5-1.9-0.5 0.1-1-0.1-1.2-0.6q-0.9-1.7-1.5-3.7c-0.2-0.4 0-0.9 0.4-1.2 1.9-1.3 3.2-3.5 3.2-6 0-2.5-1.3-4.7-3.2-6-0.4-0.3-0.6-0.8-0.4-1.3q0.6-1.9 1.5-3.7c0.2-0.4 0.7-0.6 1.2-0.5 2.3 0.4 4.7-0.2 6.5-2 1.8-1.8 2.4-4.2 2-6.5-0.1-0.5 0.1-1 0.5-1.2q1.8-0.9 3.7-1.5c0.5-0.2 1 0 1.3 0.4 1.3 1.9 3.5 3.2 6 3.2 2.5 0 4.7-1.3 6-3.2 0.3-0.4 0.8-0.6 1.2-0.4zm-20.9 22.7c0 7.5 6.1 13.7 13.7 13.7 7.5 0 13.7-6.2 13.7-13.7 0-7.6-6.2-13.7-13.7-13.7-7.6 0-13.7 6.1-13.7 13.7zm17.6-9c1.9 1.3 3.1 3.4 3.1 5.8 0 2.8-1.6 5.1-3.8 6.3-0.3 0.1-0.4 0.3-0.4 0.6v8q-1.4 0.3-2.8 0.3-1.5 0-2.8-0.3v-8c0-0.3-0.2-0.5-0.4-0.6-2.3-1.2-3.8-3.5-3.8-6.3 0-2.4 1.2-4.5 3.1-5.8 0.2-0.1 0.5-0.1 0.7 0 0.2 0.1 0.4 0.4 0.4 0.6v6.1c0 0.4 0.3 0.7 0.7 0.7h4.2c0.4 0 0.7-0.3 0.7-0.7v-6.1c0-0.2 0.1-0.5 0.4-0.6 0.2-0.1 0.5-0.1 0.7 0z"/>
		</g>
	</g>
</svg>