<svg xmlns="http://www.w3.org/2000/svg" xmlns:xlink="http://www.w3.org/1999/xlink" width="500" zoomAndPan="magnify" viewBox="0 0 375 74.999997" height="100" preserveAspectRatio="xMidYMid meet" version="1.0"><defs><clipPath id="31b8024c91"><path d="M 88.421875 33.175781 L 133.679688 33.175781 L 133.679688 41.953125 L 88.421875 41.953125 Z M 88.421875 33.175781 " clip-rule="nonzero"/></clipPath><clipPath id="b7033c868b"><path d="M 196.148438 11.289062 L 205.46875 11.289062 L 205.46875 20.90625 L 196.148438 20.90625 Z M 196.148438 11.289062 " clip-rule="nonzero"/></clipPath><clipPath id="d0959e497d"><path d="M 197.648438 11.289062 L 203.96875 11.289062 C 204.367188 11.289062 204.746094 11.449219 205.027344 11.730469 C 205.3125 12.011719 205.46875 12.390625 205.46875 12.789062 L 205.46875 19.40625 C 205.46875 19.804688 205.3125 20.1875 205.027344 20.46875 C 204.746094 20.75 204.367188 20.90625 203.96875 20.90625 L 197.648438 20.90625 C 197.25 20.90625 196.867188 20.75 196.585938 20.46875 C 196.304688 20.1875 196.148438 19.804688 196.148438 19.40625 L 196.148438 12.789062 C 196.148438 12.390625 196.304688 12.011719 196.585938 11.730469 C 196.867188 11.449219 197.25 11.289062 197.648438 11.289062 Z M 197.648438 11.289062 " clip-rule="nonzero"/></clipPath><clipPath id="8fb4e1b055"><path d="M 195.9375 25.1875 L 205.257812 25.1875 L 205.257812 63.832031 L 195.9375 63.832031 Z M 195.9375 25.1875 " clip-rule="nonzero"/></clipPath><clipPath id="e05809a3a1"><path d="M 197.4375 25.1875 L 203.757812 25.1875 C 204.15625 25.1875 204.539062 25.34375 204.820312 25.625 C 205.101562 25.90625 205.257812 26.289062 205.257812 26.6875 L 205.257812 62.332031 C 205.257812 62.726562 205.101562 63.109375 204.820312 63.390625 C 204.539062 63.671875 204.15625 63.832031 203.757812 63.832031 L 197.4375 63.832031 C 197.039062 63.832031 196.660156 63.671875 196.378906 63.390625 C 196.097656 63.109375 195.9375 62.726562 195.9375 62.332031 L 195.9375 26.6875 C 195.9375 26.289062 196.097656 25.90625 196.378906 25.625 C 196.660156 25.34375 197.039062 25.1875 197.4375 25.1875 Z M 197.4375 25.1875 " clip-rule="nonzero"/></clipPath><clipPath id="7b7e8d38e3"><path d="M 212.210938 26.035156 L 242.511719 26.035156 L 242.511719 34.808594 L 212.210938 34.808594 Z M 212.210938 26.035156 " clip-rule="nonzero"/></clipPath><clipPath id="f57aea66e9"><path d="M 242.511719 27.535156 L 242.511719 33.308594 C 242.511719 34.136719 241.839844 34.808594 241.011719 34.808594 L 213.710938 34.808594 C 212.882812 34.808594 212.210938 34.136719 212.210938 33.308594 L 212.210938 27.535156 C 212.210938 26.707031 212.882812 26.035156 213.710938 26.035156 L 241.011719 26.035156 C 241.839844 26.035156 242.511719 26.707031 242.511719 27.535156 Z M 242.511719 27.535156 " clip-rule="nonzero"/></clipPath><clipPath id="a8e3d8332e"><path d="M 223.324219 11.167969 L 231.410156 11.167969 L 231.410156 20.789062 L 223.324219 20.789062 Z M 223.324219 11.167969 " clip-rule="nonzero"/></clipPath><clipPath id="796644283f"><path d="M 224.824219 11.167969 L 229.910156 11.167969 C 230.308594 11.167969 230.691406 11.328125 230.972656 11.609375 C 231.253906 11.890625 231.410156 12.273438 231.410156 12.667969 L 231.410156 19.289062 C 231.410156 19.683594 231.253906 20.066406 230.972656 20.347656 C 230.691406 20.628906 230.308594 20.789062 229.910156 20.789062 L 224.824219 20.789062 C 224.429688 20.789062 224.046875 20.628906 223.765625 20.347656 C 223.484375 20.066406 223.324219 19.683594 223.324219 19.289062 L 223.324219 12.667969 C 223.324219 12.273438 223.484375 11.890625 223.765625 11.609375 C 224.046875 11.328125 224.429688 11.167969 224.824219 11.167969 Z M 224.824219 11.167969 " clip-rule="nonzero"/></clipPath><clipPath id="28ffc95b7d"><path d="M 237.703125 54.800781 L 247.320312 54.800781 L 247.320312 63.023438 L 237.703125 63.023438 Z M 237.703125 54.800781 " clip-rule="nonzero"/></clipPath><clipPath id="e016a45cb5"><path d="M 247.320312 56.300781 L 247.320312 61.523438 C 247.320312 61.921875 247.160156 62.300781 246.878906 62.582031 C 246.597656 62.863281 246.21875 63.023438 245.820312 63.023438 L 239.203125 63.023438 C 238.804688 63.023438 238.421875 62.863281 238.140625 62.582031 C 237.859375 62.300781 237.703125 61.921875 237.703125 61.523438 L 237.703125 56.300781 C 237.703125 55.902344 237.859375 55.519531 238.140625 55.238281 C 238.421875 54.957031 238.804688 54.800781 239.203125 54.800781 L 245.820312 54.800781 C 246.21875 54.800781 246.597656 54.957031 246.878906 55.238281 C 247.160156 55.519531 247.320312 55.902344 247.320312 56.300781 Z M 247.320312 56.300781 " clip-rule="nonzero"/></clipPath><clipPath id="bb89dce46e"><path d="M 178.183594 11.289062 L 186.136719 11.289062 L 186.136719 20.90625 L 178.183594 20.90625 Z M 178.183594 11.289062 " clip-rule="nonzero"/></clipPath><clipPath id="baaf8294a9"><path d="M 179.683594 11.289062 L 184.636719 11.289062 C 185.035156 11.289062 185.417969 11.449219 185.699219 11.730469 C 185.980469 12.011719 186.136719 12.390625 186.136719 12.789062 L 186.136719 19.40625 C 186.136719 19.804688 185.980469 20.1875 185.699219 20.46875 C 185.417969 20.75 185.035156 20.90625 184.636719 20.90625 L 179.683594 20.90625 C 179.285156 20.90625 178.902344 20.75 178.621094 20.46875 C 178.339844 20.1875 178.183594 19.804688 178.183594 19.40625 L 178.183594 12.789062 C 178.183594 12.390625 178.339844 12.011719 178.621094 11.730469 C 178.902344 11.449219 179.285156 11.289062 179.683594 11.289062 Z M 179.683594 11.289062 " clip-rule="nonzero"/></clipPath><clipPath id="59a82721d8"><path d="M 255.105469 17.605469 L 300.855469 17.605469 L 300.855469 63.355469 L 255.105469 63.355469 Z M 255.105469 17.605469 " clip-rule="nonzero"/></clipPath></defs><path stroke-linecap="butt" transform="matrix(0.75, 0, 0, 0.75, 28.716396, 13.103826)" fill="none" stroke-linejoin="miter" d="M 5.497931 0.00218989 L 5.497931 44.007402 C 5.497931 48.174069 7.154181 52.168861 10.102098 55.116778 C 13.044807 58.059486 17.039599 59.715736 21.206266 59.715736 L 36.914601 59.715736 " stroke="#000000" stroke-width="11" stroke-opacity="1" stroke-miterlimit="4"/><path stroke-linecap="butt" transform="matrix(0.75, 0, 0, 0.75, 48.89528, 13.103826)" fill="none" stroke-linejoin="miter" d="M 34.691712 0.00218989 L 34.691712 42.371985 C 34.691712 51.950111 26.926087 59.715736 17.342753 59.715736 L -0.000998743 59.715736 " stroke="#000000" stroke-width="11" stroke-opacity="1" stroke-miterlimit="4"/><g clip-path="url(#31b8024c91)"><path fill="#000000" d="M 133.679688 33.175781 L 133.679688 41.953125 L 88.421875 41.953125 L 88.421875 33.175781 Z M 133.679688 33.175781 " fill-opacity="1" fill-rule="nonzero"/></g><path stroke-linecap="butt" transform="matrix(0.75, 0, 0, 0.75, 87.062096, 12.940096)" fill="none" stroke-linejoin="miter" d="M 61.479711 5.501747 L 19.500541 5.501747 C 11.766165 5.501747 5.50054 11.767373 5.50054 19.501748 L 5.50054 46.152792 C 5.50054 53.887168 11.766165 60.152793 19.500541 60.152793 L 62.167211 60.152793 " stroke="#000000" stroke-width="11" stroke-opacity="1" stroke-miterlimit="4"/><g clip-path="url(#b7033c868b)"><g clip-path="url(#d0959e497d)"><path fill="#000000" d="M 196.148438 11.289062 L 205.46875 11.289062 L 205.46875 20.90625 L 196.148438 20.90625 Z M 196.148438 11.289062 " fill-opacity="1" fill-rule="nonzero"/></g></g><g clip-path="url(#8fb4e1b055)"><g clip-path="url(#e05809a3a1)"><path fill="#000000" d="M 195.9375 25.1875 L 205.257812 25.1875 L 205.257812 63.832031 L 195.9375 63.832031 Z M 195.9375 25.1875 " fill-opacity="1" fill-rule="nonzero"/></g></g><path stroke-linecap="butt" transform="matrix(0.75, 0, 0, 0.75, 313.10919, 22.941069)" fill="none" stroke-linejoin="miter" d="M 44.234625 5.50045 L 24.500249 5.50045 C 14.005456 5.50045 5.500247 14.005659 5.500247 24.500452 L 5.500247 54.521288 " stroke="#000000" stroke-width="11" stroke-opacity="1" stroke-miterlimit="4"/><path stroke-linecap="butt" transform="matrix(0.75, 0, 0, 0.75, 223.243525, 12.07471)" fill="none" stroke-linejoin="miter" d="M 5.498217 -0.000655659 L 5.498217 52.33789 C 5.498217 55.014974 6.565925 57.587891 8.45655 59.478516 C 10.352384 61.374349 12.920092 62.436849 15.602384 62.436849 L 25.701343 62.436849 " stroke="#000000" stroke-width="11" stroke-opacity="1" stroke-miterlimit="4"/><g clip-path="url(#7b7e8d38e3)"><g clip-path="url(#f57aea66e9)"><path fill="#000000" d="M 242.511719 26.035156 L 242.511719 34.808594 L 212.210938 34.808594 L 212.210938 26.035156 Z M 242.511719 26.035156 " fill-opacity="1" fill-rule="nonzero"/></g></g><g clip-path="url(#a8e3d8332e)"><g clip-path="url(#796644283f)"><path fill="#000000" d="M 223.324219 11.167969 L 231.410156 11.167969 L 231.410156 20.789062 L 223.324219 20.789062 Z M 223.324219 11.167969 " fill-opacity="1" fill-rule="nonzero"/></g></g><g clip-path="url(#28ffc95b7d)"><g clip-path="url(#e016a45cb5)"><path fill="#000000" d="M 247.320312 54.800781 L 247.320312 63.023438 L 237.703125 63.023438 L 237.703125 54.800781 Z M 247.320312 54.800781 " fill-opacity="1" fill-rule="nonzero"/></g></g><path stroke-linecap="butt" transform="matrix(0.75, 0, 0, 0.75, 140.766646, 12.195107)" fill="none" stroke-linejoin="miter" d="M 55.191351 0.000274048 L 55.191351 52.27632 C 55.191351 57.802362 50.712184 62.276321 45.19135 62.276321 L 15.498639 62.276321 C 9.977806 62.276321 5.498639 57.802362 5.498639 52.27632 L 5.498639 39.932569 C 5.498639 34.411735 9.977806 29.932568 15.498639 29.932568 L 55.191351 29.932568 " stroke="#000000" stroke-width="11" stroke-opacity="1" stroke-miterlimit="4"/><g clip-path="url(#bb89dce46e)"><g clip-path="url(#baaf8294a9)"><path fill="#000000" d="M 178.183594 11.289062 L 186.136719 11.289062 L 186.136719 20.90625 L 178.183594 20.90625 Z M 178.183594 11.289062 " fill-opacity="1" fill-rule="nonzero"/></g></g><g clip-path="url(#59a82721d8)"><path fill="#000000" d="M 285.230469 17.757812 C 286.511719 18.164062 287.742188 18.675781 288.917969 19.285156 C 289.363281 19.515625 289.589844 19.992188 289.488281 20.484375 C 289.019531 22.769531 289.667969 25.242188 291.441406 27.015625 C 293.21875 28.789062 295.6875 29.4375 297.972656 28.96875 C 298.464844 28.867188 298.941406 29.097656 299.171875 29.539062 C 299.78125 30.714844 300.292969 31.945312 300.703125 33.226562 C 300.855469 33.699219 300.675781 34.203125 300.257812 34.476562 C 298.308594 35.761719 297.019531 37.96875 297.019531 40.476562 C 297.019531 42.988281 298.308594 45.195312 300.257812 46.480469 C 300.675781 46.753906 300.855469 47.253906 300.703125 47.730469 C 300.292969 49.011719 299.78125 50.242188 299.171875 51.417969 C 298.941406 51.863281 298.464844 52.089844 297.976562 51.988281 C 295.6875 51.519531 293.21875 52.167969 291.441406 53.945312 C 289.667969 55.71875 289.019531 58.1875 289.488281 60.476562 C 289.589844 60.964844 289.363281 61.441406 288.917969 61.671875 C 287.742188 62.28125 286.511719 62.792969 285.230469 63.199219 C 284.753906 63.351562 284.253906 63.175781 283.980469 62.757812 C 282.695312 60.808594 280.488281 59.519531 277.976562 59.519531 C 275.46875 59.519531 273.261719 60.808594 271.976562 62.757812 C 271.703125 63.175781 271.203125 63.351562 270.726562 63.199219 C 269.445312 62.792969 268.214844 62.28125 267.039062 61.671875 C 266.59375 61.441406 266.367188 60.964844 266.46875 60.476562 C 266.9375 58.1875 266.289062 55.71875 264.515625 53.945312 C 262.738281 52.167969 260.269531 51.519531 257.984375 51.988281 C 257.492188 52.089844 257.015625 51.863281 256.785156 51.417969 C 256.175781 50.242188 255.664062 49.011719 255.253906 47.730469 C 255.105469 47.253906 255.28125 46.753906 255.699219 46.480469 C 257.648438 45.195312 258.9375 42.988281 258.9375 40.476562 C 258.9375 37.96875 257.648438 35.761719 255.699219 34.476562 C 255.28125 34.203125 255.105469 33.699219 255.253906 33.226562 C 255.664062 31.945312 256.175781 30.714844 256.785156 29.539062 C 257.015625 29.097656 257.492188 28.867188 257.984375 28.96875 C 260.269531 29.4375 262.742188 28.789062 264.515625 27.015625 C 266.289062 25.242188 266.9375 22.769531 266.46875 20.484375 C 266.367188 19.992188 266.59375 19.515625 267.039062 19.285156 C 268.214844 18.675781 269.445312 18.164062 270.726562 17.753906 C 271.203125 17.605469 271.703125 17.78125 271.976562 18.199219 C 273.261719 20.148438 275.46875 21.4375 277.976562 21.4375 C 280.488281 21.4375 282.695312 20.148438 283.980469 18.199219 C 284.253906 17.78125 284.753906 17.605469 285.230469 17.757812 Z M 281.890625 31.53125 C 283.757812 32.789062 284.984375 34.925781 284.984375 37.34375 C 284.984375 40.066406 283.433594 42.425781 281.167969 43.585938 C 280.925781 43.707031 280.78125 43.945312 280.78125 44.21875 L 280.78125 52.167969 C 279.882812 52.382812 278.945312 52.496094 277.976562 52.496094 C 277.011719 52.496094 276.074219 52.382812 275.175781 52.167969 L 275.175781 44.21875 C 275.175781 43.945312 275.03125 43.710938 274.789062 43.585938 C 272.523438 42.425781 270.972656 40.066406 270.972656 37.34375 C 270.972656 34.925781 272.199219 32.789062 274.066406 31.53125 C 274.289062 31.378906 274.558594 31.367188 274.796875 31.492188 C 275.035156 31.621094 275.175781 31.851562 275.175781 32.121094 L 275.175781 38.234375 C 275.175781 38.625 275.496094 38.945312 275.886719 38.945312 L 280.070312 38.945312 C 280.460938 38.945312 280.78125 38.625 280.78125 38.234375 L 280.78125 32.121094 C 280.78125 31.851562 280.921875 31.621094 281.160156 31.492188 C 281.398438 31.367188 281.667969 31.382812 281.890625 31.53125 Z M 277.976562 26.804688 C 285.53125 26.804688 291.652344 32.925781 291.652344 40.480469 C 291.652344 48.03125 285.53125 54.152344 277.976562 54.152344 C 270.425781 54.152344 264.304688 48.03125 264.304688 40.480469 C 264.304688 32.925781 270.425781 26.804688 277.976562 26.804688 Z M 277.976562 26.804688 " fill-opacity="1" fill-rule="evenodd"/></g></svg>